#!OML:ASF F:\VICON\USERDATA\INSTALL\rory3\rory3.ASF
:FULLY-SPECIFIED
:DEGREES
44
root 0.5095118782206915 17.79667285993022 23.858056012397626 -2.455305926727618 -4.3230264137707515 -4.058841558233938
lfemur -22.208932021121917 -3.3736056324576573 -17.37742429030666
ltibia 22.662828250719045
lfoot -2.2242408992965474 -1.811338232703894
ltoes -0.6738053374865332
rfemur 10.904702359028422 4.631091233804554 28.33877724695801
rtibia 46.18841089488305
rfoot 5.899668842539278 3.0832080764751737
rtoes 3.4481422258378704
lowerback 8.750975849837566 3.260530834353845 5.063229695797556
upperback 0.10044316811703952 4.833768788720071 0.8162274361421558
thorax -4.611918997962403 2.2958701312030025 -2.237051244196034
lowerneck -16.757493783007387 -3.5281307496275214 -1.5865042614408205
upperneck 21.046774401200494 -4.752814999597339 1.8770031229175244
head 9.49142391362639 -2.1549056704315537 0.25067396452259594
lclavicle -2.1748657583102558e-15 -8.832794360111214e-19
lhumerus -39.77204035601944 9.432385107623993 81.39939208152119
lradius 18.480954878032982
lwrist -1.0368481086368977
lhand -24.349315514008577 25.93342349177448
lfingers 7.1250199999999975
lthumb 2.1398424528661604 55.89975148699046
rclavicle -2.1748657583102558e-15 -8.8327943601122e-19
rhumerus -24.170260765248734 -13.219714463254611 -81.63957726590054
rradius 29.006906054481533
rwrist 3.0522026433589144
rhand -18.302600145649603 23.54601775937162
rfingers 7.1250199999999975
rthumb 7.978146707219519 -6.1998429826244195
45
root 0.6424945493427909 17.86602159894903 24.521740010810817 -3.194287752202447 -4.549994750345418 -2.1613873782857365
lfemur -18.809570323336064 -3.0123365485461226 -20.56925787970798
ltibia 25.163121546171308
lfoot -4.302482253992518 -1.6154464086624287
ltoes 0.7936663295753008
rfemur 3.912269379691354 3.420587684775233 25.060554308699636
rtibia 58.219475221380875
rfoot 14.041094135468635 1.4116106628090872
rtoes 10.44996038854504
lowerback 9.08123462942744 3.125019418954838 3.23259412345819
upperback 0.19167466706563233 4.452212077316565 0.41062237928050416
thorax -4.740573912709849 2.1425043366826975 -1.6385931843396326
lowerneck -16.721899131650535 -3.388489793494112 -1.6895751479423657
upperneck 21.08660984087521 -4.560984213797487 1.8899883240121549
head 9.513478775796573 -2.073830656955636 0.2908996872985108
lclavicle -2.306332335066954e-15 -8.864040593406789e-17
lhumerus -39.18102632954162 8.950076550032783 81.34951384177303
lradius 18.70216656558844
lwrist 0.39881901775630535
lhand -24.908013174107424 25.658480663131
lfingers 7.1250199999999975
lthumb 1.6002608125184516 55.62071511103831
rclavicle -2.306332335066954e-15 -8.864040593406789e-17
rhumerus -25.204641052566526 -15.174638220755671 -81.24825267693349
rradius 27.896647078252197
rwrist 4.437516385626544
rhand -17.909307825991068 23.012789405359573
rfingers 7.1250199999999975
rthumb 8.357724844102751 -6.713600706459445
46
root 0.7291942489956524 17.919598940828056 25.51461137303628 -3.8069649889888826 -4.7528270833945925 -0.599572161271148
lfemur -14.566292619994403 -3.1407664864798743 -23.11543930345171
ltibia 25.75648864778734
lfoot -6.939406012932988 0.07865994318799596
ltoes 1.7067109115017725
rfemur -4.242682386404756 2.191919373644201 22.45486513769895
rtibia 69.16533384037346
rfoot 14.697273424000782 -2.103177445838166
rtoes 14.291148217779165
lowerback 9.48621777342611 2.8040963730316273 1.563260864987059
upperback 0.36458812991280987 3.855406149375261 0.18955084271977896
thorax -4.846602205369515 1.8811300991526383 -0.9125020272871806
lowerneck -16.715065083776587 -3.1187916863640726 -1.745774470531395
upperneck 21.017754970677917 -4.1734872809491845 1.7503763943543675
head 9.492231860512707 -1.9199815335265837 0.313929319260401
lclavicle -2.3524847952255494e-15 -1.1951096012479308e-16
lhumerus -37.81317326311728 7.705330064546858 81.77107383268661
lradius 19.50624949438809
lwrist 2.0476780752714183
lhand -26.163627056726057 24.25874282196337
lfingers 7.1250199999999975
lthumb 0.38765947250464694 54.222109901141344
rclavicle -2.3524847952255494e-15 -1.1951096012479318e-16
rhumerus -25.97650863760735 -17.16666383726759 -80.80631949832288
rradius 26.5149403450236
rwrist 6.0034237482680615
rhand -17.497996889569734 22.39577632755591
rfingers 7.1250199999999975
rthumb 8.754734041825591 -7.3800250434268015
47
root 0.7714559750599199 17.954358386159175 27.264146988239553 -4.228010438433692 -4.455652098881899 0.5446896688500065
lfemur -10.197335513212453 -3.4331653936909707 -24.890343666779405
ltibia 26.197596076365315
lfoot -9.341675624540004 1.875061757389967
ltoes 2.2952857182587425
rfemur -12.081037216814927 0.8618746242524491 20.986496947704403
rtibia 76.70928415971426
rfoot 8.616625307019726 -5.102286958449039
rtoes 13.514542161549306
lowerback 9.852103714835984 2.280867761986048 0.2975231462728962
upperback 0.5844444678141153 3.0289351983135777 0.17786903023132128
thorax -4.887697002426117 1.5008515922092212 -0.10000432051393282
lowerneck -16.64861090354489 -2.8325692323491105 -1.7822836405512215
upperneck 20.968179693832298 -3.7501233577924533 1.5431684534342787
head 9.459873324553271 -1.756896151120358 0.3324475984434633
lclavicle -2.0808139118812716e-15 6.165902653189878e-17
lhumerus -35.5853637684908 6.036335934558943 82.33716128399456
lradius 20.432838546206995
lwrist 2.8914417123116136
lhand -26.995541699135508 23.045596644359364
lfingers 7.1250199999999975
lthumb -0.4157338276807292 53.01439263284258
rclavicle -2.0808139118812716e-15 6.165902653189878e-17
rhumerus -26.585508090133803 -18.820153805666525 -80.38869400232643
rradius 25.332141253583117
rwrist 7.443507613882042
rhand -17.192074197831545 21.868320418236905
rfingers 7.1250199999999975
rthumb 9.050014051633632 -7.9386197108303636
48
root 0.7850333771387995 17.95405406415075 28.25004355205258 -4.417780199857465 -3.7456916455028884 1.2717629823578376
lfemur -6.639217437723372 -3.759513021377807 -26.35380450850984
ltibia 26.062329297114452
lfoot -11.93225626307298 3.0750549095689754
ltoes 2.3739069112073037
rfemur -19.570569655446292 -0.5030143950158834 20.26472821344659
rtibia 78.40884824247888
rfoot -0.006298000387449321 -6.717960393167428
rtoes 9.61769328082441
lowerback 10.11089011099406 1.5669610541768946 -0.8206847357283469
upperback 0.754131104482313 1.9588843082027774 0.27399887968690506
thorax -4.913317823354986 0.9987939036601197 0.6654607792624609
lowerneck -16.567743985569123 -2.6506034350814778 -1.9594203218755804
upperneck 20.9499144308777 -3.460988464259662 1.386851847255003
head 9.424175183971977 -1.650009381810181 0.36891604369281905
lclavicle -2.3011975483569692e-15 -8.517651144465968e-17
lhumerus -32.898798091692534 3.7379191759426638 82.72197036184227
lradius 21.296742585570215
lwrist 3.082018057489349
lhand -27.149925712219556 22.61444405254022
lfingers 7.1250199999999975
lthumb -0.5648058346928646 52.58876205941143
rclavicle -2.3011975483569692e-15 -8.517651144465968e-17
rhumerus -27.351594994763925 -19.901431396573045 -80.09087813780776
rradius 24.59755811707144
rwrist 7.938396554652866
rhand -17.101106858543396 21.564873466256625
rfingers 7.1250199999999975
rthumb 9.137781013781892 -8.20321967259722
49
root 0.7896023770390808 17.924424037390605 28.55859894162559 -4.270975901083414 -2.812359967116559 1.8334018316793474
lfemur -3.359703357980112 -3.9135460350765925 -27.546871568463075
ltibia 25.255568565348312
lfoot -14.411102778367795 3.890633126711382
ltoes 2.412716049525151
rfemur -25.877469680677933 -1.4505713953981951 19.847386614911674
rtibia 74.16424241289485
rfoot -6.2898378949618134 -7.527239089380636
rtoes 5.546971428436928
lowerback 10.28528862705166 0.8308890252120338 -1.8616178576768079
upperback 0.8255189216730332 0.8669810936828825 0.43055936439655706
thorax -4.952629704101779 0.48433015210610975 1.4296515310112043
lowerneck -16.53767625627773 -2.6136444083430206 -2.3063393690173712
upperneck 20.8736398889717 -3.3709545189959655 1.443013296441607
head 9.375358174136156 -1.620288308464625 0.45716806740195326
lclavicle -2.6087945951171102e-15 -2.9006629162449927e-16
lhumerus -29.930610475851992 0.8599251804999658 82.94215101021571
lradius 22.360503728440857
lwrist 3.510325567877621
lhand -27.089265850707683 22.76518199423864
lfingers 7.1250199999999975
lthumb -0.5062202556891706 52.74318501031741
rclavicle -2.6087945951171102e-15 -2.9006629162449927e-16
rhumerus -28.268206542408834 -20.182864832564615 -79.89956520976823
rradius 24.536631575333303
rwrist 7.264206544807284
rhand -17.174456296013947 21.54573521006671
rfingers 7.1250199999999975
rthumb 9.066949121871076 -8.17920924503243
50
root 0.7733099212378898 17.88388148555949 28.532513086568756 -3.8095509581945093 -1.8737300814162152 2.40857009584207
lfemur -0.05038182905457944 -3.7792561025454527 -28.710713330155073
ltibia 22.98298648094378
lfoot -16.442762658719857 4.262074132095221
ltoes 2.2998902294284176
rfemur -30.52609487211805 -1.4742146948951653 18.94891887088989
rtibia 64.67015846325626
rfoot -8.885553456351067 -9.190483629422278
rtoes 2.9158717829813052
lowerback 10.324338117371003 0.17689945546666397 -2.961152066969335
upperback 0.8094560241517105 -0.1187993322148635 0.5548330508437642
thorax -4.977358996522452 0.02167118683008118 2.142662131647624
lowerneck -16.58718278277829 -2.6615468310024712 -2.6895364230881684
upperneck 20.67441557242027 -3.4114539563068225 1.6340294161388362
head 9.29774592832444 -1.6367723485866523 0.565334093975576
lclavicle -3.078984723457704e-15 -6.03536011101117e-16
lhumerus -26.941814781003714 -2.1336554380219175 83.00245081222324
lradius 23.74387396834718
lwrist 4.42746598670746
lhand -27.14438867529285 23.082369872312537
lfingers 7.1250199999999975
lthumb -0.5594781186258933 53.06208578897841
rclavicle -3.078984723457704e-15 -6.03536011101117e-16
rhumerus -29.252727178011995 -20.069843453395187 -79.85534356710147
rradius 24.816561581664153
rwrist 5.965101347425093
rhand -17.32449222961376 21.78800249238742
rfingers 7.1250199999999975
rthumb 8.922126376826677 -7.942685822437875
